<?xml version="1.0" standalone="no"?>
<!DOCTYPE svg PUBLIC "-//W3C//DTD SVG 20010904//EN"
 "http://www.w3.org/TR/2001/REC-SVG-20010904/DTD/svg10.dtd">
<svg version="1.0" xmlns="http://www.w3.org/2000/svg"
 width="120.000000pt" height="120.000000pt" viewBox="0 0 120.000000 120.000000"
 preserveAspectRatio="xMidYMid meet">
<metadata>
Created by potrace 1.11, written by Peter Selinger 2001-2013
</metadata>
<g transform="translate(0.000000,120.000000) scale(0.100000,-0.100000)"
fill="#000000" stroke="none">
<path d="M449 1155 c-24 -13 -38 -32 -44 -60 -26 -116 -35 -176 -40 -265 -2
-36 -4 -65 -5 -65 -1 0 -3 -89 -4 -197 -1 -109 -6 -201 -10 -205 -4 -4 -19 -9
-34 -11 -15 -2 -31 -7 -35 -11 -5 -5 -10 -49 -12 -99 -2 -50 -6 -95 -10 -101
-3 -6 -17 -11 -31 -11 -29 0 -32 -7 -37 -78 l-4 -52 423 0 423 0 -4 21 c-2 12
-5 39 -7 61 -2 42 -6 47 -39 53 -12 3 -23 6 -25 8 -2 2 -4 44 -5 95 -1 97 -3
100 -54 117 l-29 10 -2 175 c-2 173 -9 296 -19 355 -10 54 -55 132 -98 170
-88 79 -238 124 -298 90z"/>
</g>
</svg>
